:SAMPLES-PER-SECOND 30
:FRAME-RANGE 1-3535
:FULLY-SPECIFIED
:DEGREES
1768
root  -14.6905 36.6145 -22.4249 9.65198 -38.8033 2.93318
RightUpLeg  3.9868 3.12043 4.72271
RightLeg  35.4846 12.7218 9.34444
RightFoot  -16.8883 -0.168325 -1.11693
RightToes  5.38503e-012 1.26228e-014 -6.01869e-014
Spine  4.39565 5.46383 -0.0328299
Spine1  5.90205 6.91266 -6.57928
HEad  -6.79646 40.3347 -18.5424
LeftShoulder1  0.235622 2.52465 -24.2236
LeftArm  -0.233834 3.07158 -39.478
LeftForeArm  29.0195 7.97089 -13.4518
LeftHand  -0.0157127 5.72365 3.87334
RightShoulder  2.19628 4.68484 21.2489
RightArm  -22.7356 13.7687 53.6781
RightForeArm  68.2675 -2.66269 4.15747
RightHand  0.128651 -6.31344 -17.8951
LeftUpLeg  -44.022 -10.3681 -4.62248
LeftLeg  26.7099 11.7101 6.66721
LeftFoot  1.87883 -0.157397 1.26025
LeftToes  8.9788e-011 3.29689e-010 2.1201e-011
1769
root  -15.9256 36.5688 -21.5337 8.93652 -37.8207 3.89816
RightUpLeg  -0.532065 1.2392 2.21419
RightLeg  46.9196 16.0251 17.299
RightFoot  -10.4631 -0.175336 13.5017
RightToes  5.38503e-012 1.26228e-014 -6.01869e-014
Spine  4.90143 5.41823 -0.547674
Spine1  7.02456 7.18935 -7.56839
HEad  -9.99179 43.9671 -22.8162
LeftShoulder1  0.362821 2.09537 -24.0002
LeftArm  -0.850687 -2.37988 -41.425
LeftForeArm  31.0262 7.92312 -13.6088
LeftHand  -0.00623858 6.26874 3.18243
RightShoulder  2.22922 4.69923 21.6369
RightArm  -25.7505 9.26142 53.9101
RightForeArm  68.1257 -5.21388 2.53827
RightHand  0.153548 -6.41526 -18.8112
LeftUpLeg  -43.2243 -10.0458 -5.84688
LeftLeg  29.8979 9.94534 6.47282
LeftFoot  1.36011 -0.510198 4.50786
LeftToes  8.9788e-011 3.29689e-010 2.1201e-011
1770
root  -17.1039 36.6456 -20.6348 8.56458 -35.5345 5.19571
RightUpLeg  -6.49058 -1.36673 -0.1291
RightLeg  56.5417 13.9822 21.2038
RightFoot  -2.47759 -2.0398 25.6889
RightToes  5.38503e-012 1.26228e-014 -6.01869e-014
Spine  4.89077 4.79778 -1.85997
Spine1  7.31862 6.47772 -7.37253
HEad  -10.4741 46.822 -25.0451
LeftShoulder1  0.379036 2.03982 -23.9624
LeftArm  -1.54137 -7.07203 -43.9852
LeftForeArm  32.307 7.90336 -13.4355
LeftHand  -0.0073818 6.41319 2.74584
RightShoulder  2.12762 4.15587 22.3379
RightArm  -28.7515 5.22676 53.5603
RightForeArm  68.8775 -4.95829 1.19354
RightHand  0.183228 -6.60521 -18.7353
LeftUpLeg  -42.0732 -11.1645 -6.89473
LeftLeg  31.941 8.73176 6.18294
LeftFoot  -1.56138 -0.350388 4.20418
LeftToes  8.9788e-011 3.29689e-010 2.1201e-011
1771
root  -18.275 36.9099 -19.714 8.18286 -32.8875 6.25166
RightUpLeg  -11.6509 -3.41999 -1.81418
RightLeg  62.8844 9.75898 19.4073
RightFoot  -3.85886 -1.53333 22.7604
RightToes  5.38503e-012 1.26228e-014 -6.01869e-014
Spine  5.37066 4.14805 -2.93438
Spine1  6.91572 5.6237 -6.99433
HEad  -10.0893 48.0822 -25.62
LeftShoulder1  0.44418 1.82626 -24.0432
LeftArm  -0.659812 -11.2925 -47.0002
LeftForeArm  32.3999 7.89602 -13.5307
LeftHand  -0.00435197 6.43689 2.99816
RightShoulder  2.016 3.54649 23.2888
RightArm  -31.9677 0.262493 52.5195
RightForeArm  70.5884 -4.63848 -0.294094
RightHand  0.202149 -6.84765 -17.3145
LeftUpLeg  -39.5637 -12.4498 -7.71315
LeftLeg  31.9915 7.59394 5.44952
LeftFoot  -3.99312 -0.201585 3.51371
LeftToes  8.9788e-011 3.29689e-010 2.1201e-011
1772
root  -19.4525 37.3211 -18.7492 8.25446 -30.9584 6.22521
RightUpLeg  -16.488 -5.24867 -2.91998
RightLeg  65.8429 5.72649 13.1716
RightFoot  -6.61178 -0.801083 18.1587
RightToes  5.38503e-012 1.26228e-014 -6.01869e-014
Spine  5.55729 3.786 -2.82656
Spine1  6.64864 5.26618 -6.9883
HEad  -9.89876 48.5183 -25.3311
LeftShoulder1  0.537143 1.49039 -23.5828
LeftArm  0.831398 -14.4785 -50.9688
LeftForeArm  32.4729 7.89825 -13.4661
LeftHand  -0.00913244 5.98784 3.72276
RightShoulder  1.93244 3.10271 24.0547
RightArm  -34.843 -4.17735 51.3562
RightForeArm  71.3204 -4.36231 -1.73208
RightHand  0.184909 -6.82667 -16.2925
LeftUpLeg  -36.3633 -13.3207 -7.44244
LeftLeg  31.0311 6.86021 4.80258
LeftFoot  -5.96439 -0.0967748 2.82594
LeftToes  8.9788e-011 3.29689e-010 2.1201e-011
1773
root  -20.663 37.8111 -17.7253 8.53381 -29.353 5.59012
RightUpLeg  -20.8186 -6.6964 -3.53821
RightLeg  65.8545 2.37391 5.1802
RightFoot  -7.86976 -0.457726 13.2749
RightToes  5.38503e-012 1.26228e-014 -6.01869e-014
Spine  5.42863 3.35662 -2.63401
Spine1  6.18922 4.74123 -6.41117
HEad  -9.09163 49.1872 -23.965
LeftShoulder1  0.548972 1.40437 -22.8258
LeftArm  3.29361 -16.2751 -55.125
LeftForeArm  33.1638 4.06677 -13.6965
LeftHand  -0.0210074 5.49645 4.46169
RightShoulder  1.83539 2.66554 24.6572
RightArm  -36.9829 -7.86603 50.1629
RightForeArm  72.09 -4.13206 -2.88393
RightHand  0.19271 -6.96024 -15.5787
LeftUpLeg  -32.5771 -13.9098 -6.56276
LeftLeg  29.1682 6.2642 4.13751
LeftFoot  -7.52607 -0.0324142 2.3332
LeftToes  8.9788e-011 3.29689e-010 2.1201e-011
